<!DOCTYPE svg PUBLIC "-//W3C//DTD SVG 1.1//EN" "http://www.w3.org/Graphics/SVG/1.1/DTD/svg11.dtd">
<svg xmlns="http://www.w3.org/2000/svg"  width="5.82677in" height="4.13386in" version="1.1" viewBox="0 0 5827 4134">
<g id="_235306736">
	<path id="none" fill="#0E5F41" stroke="none" d="M4448 1171l0 1792l-1535 876l-1534 -876l0 -1792l1534 -876z"></path>
	<path id="none" fill="#FEFEFE" stroke="none" d="M4296 1259l0 1616l-1383 789l-1382 -789l0 -1616l1382 -789z"></path>
	<path id="none" fill="#008047" stroke="none" d="M4027 2251l0 164l-766 0l0 765l-695 0l0 -765l-193 0l939 -688z"></path>
	<path id="none" fill="#0E5F41" stroke="none" d="M3429 1719l598 0l0 439z"></path>
	<path fill="#0E5F41" d="M3187 2027c75,0 135,61 135,135 0,75 -61,135 -135,135 -75,0 -135,-61 -135,-135 0,-75 61,-135 135,-135z"/>
	<path id="1" fill="#FEFEFE" fill-rule="nonzero" d="M3345 2163l-45 0 0 0 0 -6 0 -6 -1 -6 -1 -6 -1 -5 -2 -5 -2 -5 -2 -5 -2 -5 -2 -5 -3 -5 -3 -5 -3 -4 -3 -4 -4 -4 -4 -4 -4 -4 -4 -4 -4 -3 -4 -3 -5 -3 -5 -3 -5 -2 -5 -2 -5 -2 -5 -2 -5 -2 -5 -1 -6 -1 -6 -1 -6 0 -6 0 0 -45 8 0 8 1 8 1 8 1 8 2 7 2 7 2 7 3 7 3 7 3 7 4 6 4 6 4 6 5 6 5 5 5 5 5 5 6 5 6 4 6 4 6 4 7 3 7 3 7 3 7 2 7 2 7 2 8 1 8 1 8 1 8 0 8 0 0zm-158 158l0 -45 0 0 6 0 6 0 6 -1 6 -1 5 -1 5 -2 5 -2 5 -2 5 -2 5 -2 5 -3 5 -3 4 -3 4 -3 4 -4 4 -4 4 -4 4 -4 3 -4 3 -4 3 -5 3 -5 2 -5 2 -5 2 -5 2 -5 2 -5 1 -5 1 -6 1 -6 0 -6 0 -6 45 0 0 8 -1 8 -1 8 -1 8 -2 8 -2 7 -2 7 -3 7 -3 7 -3 7 -4 7 -4 6 -4 6 -5 6 -5 6 -5 5 -5 5 -6 5 -6 5 -6 4 -6 4 -7 4 -7 3 -7 3 -7 3 -7 2 -7 2 -8 2 -8 1 -8 1 -8 1 -8 0 0 0zm-158 -158l45 0 0 0 0 6 0 6 1 6 1 6 1 5 2 5 2 5 2 5 2 5 2 5 3 5 3 5 3 4 3 4 4 4 4 4 4 4 4 4 4 3 4 3 5 3 5 3 5 2 5 2 5 2 5 2 5 2 5 1 6 1 6 1 6 0 6 0 0 45 -8 0 -8 -1 -8 -1 -8 -1 -8 -2 -7 -2 -7 -2 -7 -3 -7 -3 -7 -3 -7 -4 -6 -4 -6 -4 -6 -5 -6 -5 -5 -5 -5 -5 -5 -6 -5 -6 -4 -6 -4 -6 -4 -7 -3 -7 -3 -7 -3 -7 -2 -7 -2 -7 -2 -8 -1 -8 -1 -8 -1 -8 0 -8 0 0zm158 -158l0 45 0 0 -6 0 -6 0 -6 1 -6 1 -5 1 -5 2 -5 2 -5 2 -5 2 -5 2 -5 3 -5 3 -4 3 -4 3 -4 4 -4 4 -4 4 -4 4 -3 4 -3 4 -3 5 -3 5 -2 5 -2 5 -2 5 -2 5 -2 5 -1 5 -1 6 -1 6 0 6 0 6 -45 0 0 -8 1 -8 1 -8 1 -8 2 -8 2 -7 2 -7 3 -7 3 -7 3 -7 4 -7 4 -6 4 -6 5 -6 5 -6 5 -5 5 -5 6 -5 6 -5 6 -4 6 -4 7 -4 7 -3 7 -3 7 -3 7 -2 7 -2 8 -2 8 -1 8 -1 8 -1 8 0 0 0z"/>
	<path fill="#0E5F41" d="M3376 2027c75,0 135,61 135,135 0,75 -61,135 -135,135 -75,0 -135,-61 -135,-135 0,-75 61,-135 135,-135z"/>
	<path id="1" fill="#FEFEFE" fill-rule="nonzero" d="M3533 2163l-45 0 0 0 0 -6 0 -6 -1 -6 -1 -6 -1 -5 -2 -5 -2 -5 -2 -5 -2 -5 -2 -5 -3 -5 -3 -5 -3 -4 -3 -4 -4 -4 -4 -4 -4 -4 -4 -4 -4 -3 -4 -3 -5 -3 -5 -3 -5 -2 -5 -2 -5 -2 -5 -2 -5 -2 -5 -1 -6 -1 -6 -1 -6 0 -6 0 0 -45 8 0 8 1 8 1 8 1 8 2 7 2 7 2 7 3 7 3 7 3 7 4 6 4 6 4 6 5 6 5 5 5 5 5 5 6 5 6 4 6 4 6 4 7 3 7 3 7 3 7 2 7 2 7 2 8 1 8 1 8 1 8 0 8 0 0zm-158 158l0 -45 0 0 6 0 6 0 6 -1 6 -1 5 -1 5 -2 5 -2 5 -2 5 -2 5 -2 5 -3 5 -3 4 -3 4 -3 4 -4 4 -4 4 -4 4 -4 3 -4 3 -4 3 -5 3 -5 2 -5 2 -5 2 -5 2 -5 2 -5 1 -5 1 -6 1 -6 0 -6 0 -6 45 0 0 8 -1 8 -1 8 -1 8 -2 8 -2 7 -2 7 -3 7 -3 7 -3 7 -4 7 -4 6 -4 6 -5 6 -5 6 -5 5 -5 5 -6 5 -6 5 -6 4 -6 4 -7 4 -7 3 -7 3 -7 3 -7 2 -7 2 -8 2 -8 1 -8 1 -8 1 -8 0 0 0zm-158 -158l45 0 0 0 0 6 0 6 1 6 1 6 1 5 2 5 2 5 2 5 2 5 2 5 3 5 3 5 3 4 3 4 4 4 4 4 4 4 4 4 4 3 4 3 5 3 5 3 5 2 5 2 5 2 5 2 5 2 5 1 6 1 6 1 6 0 6 0 0 45 -8 0 -8 -1 -8 -1 -8 -1 -8 -2 -7 -2 -7 -2 -7 -3 -7 -3 -7 -3 -7 -4 -6 -4 -6 -4 -6 -5 -6 -5 -5 -5 -5 -5 -5 -6 -5 -6 -4 -6 -4 -6 -4 -7 -3 -7 -3 -7 -3 -7 -2 -7 -2 -7 -2 -8 -1 -8 -1 -8 -1 -8 0 -8 0 0zm158 -158l0 45 0 0 -6 0 -6 0 -6 1 -6 1 -5 1 -5 2 -5 2 -5 2 -5 2 -5 2 -5 3 -5 3 -4 3 -4 3 -4 4 -4 4 -4 4 -4 4 -3 4 -3 4 -3 5 -3 5 -2 5 -2 5 -2 5 -2 5 -2 5 -1 5 -1 6 -1 6 0 6 0 6 -45 0 0 -8 1 -8 1 -8 1 -8 2 -8 2 -7 2 -7 3 -7 3 -7 3 -7 4 -7 4 -6 4 -6 5 -6 5 -6 5 -5 5 -5 6 -5 6 -5 6 -4 6 -4 7 -4 7 -3 7 -3 7 -3 7 -2 7 -2 8 -2 8 -1 8 -1 8 -1 8 0 0 0z"/>
	<path fill="#0E5F41" d="M3281 2066c25,25 41,59 41,97 0,38 -16,72 -41,97 -25,-25 -41,-59 -41,-97 0,-38 16,-72 41,-97z"/>
	<path id="1" fill="#FEFEFE" d="M3345 2163l-45 0 0 0 0 -3 0 -3 0 -3 0 -3 0 -3 0 -3 0 -3 -1 -3 -1 -3 -1 -3 -1 -3 -1 -3 -1 -3 -1 -3 -1 -3 -1 -3 -1 -3 -1 -3 -1 -2 -1 -2 -1 -2 -1 -2 -1 -2 -2 -2 -2 -2 -2 -2 -2 -2 -2 -2 -2 -2 -2 -2 -2 -2 -2 -2 31 -32 3 3 3 3 3 3 3 3 2 3 2 3 2 3 2 3 2 3 2 3 2 3 2 3 2 3 2 3 2 4 2 4 2 4 1 4 1 4 1 4 1 4 1 4 1 4 1 4 1 4 1 4 1 4 0 4 0 4 0 4 0 4 0 4 0 0zm-79 113l31 -32 -31 0 2 -2 2 -2 2 -2 2 -2 2 -2 2 -2 2 -2 2 -2 2 -2 1 -2 1 -2 1 -2 1 -2 1 -2 1 -3 1 -3 1 -3 1 -3 1 -3 1 -3 1 -3 1 -3 1 -3 1 -3 1 -3 0 -3 0 -3 0 -3 0 -3 0 -3 0 -3 0 -3 45 0 0 4 0 4 0 4 0 4 0 4 -1 4 -1 4 -1 4 -1 4 -1 4 -1 4 -1 4 -1 4 -1 4 -1 4 -2 4 -2 4 -2 4 -2 3 -2 3 -2 3 -2 3 -2 3 -2 3 -2 3 -2 3 -2 3 -2 3 -3 3 -3 3 -3 3 -3 3 -31 0zm31 0l-16 15 -16 -15 31 0zm-79 -113l45 0 0 0 0 3 0 3 0 3 0 3 0 3 0 3 0 3 1 3 1 3 1 3 1 3 1 3 1 3 1 3 1 3 1 3 1 3 1 3 1 2 1 2 1 2 1 2 1 2 2 2 2 2 2 2 2 2 2 2 2 2 2 2 2 2 2 2 -31 32 -3 -3 -3 -3 -3 -3 -3 -3 -2 -3 -2 -3 -2 -3 -2 -3 -2 -3 -2 -3 -2 -3 -2 -3 -2 -3 -2 -3 -2 -4 -2 -4 -2 -4 -1 -4 -1 -4 -1 -4 -1 -4 -1 -4 -1 -4 -1 -4 -1 -4 -1 -4 -1 -4 0 -4 0 -4 0 -4 0 -4 0 -4 0 0zm79 -113l-31 32 31 0 -2 2 -2 2 -2 2 -2 2 -2 2 -2 2 -2 2 -2 2 -2 2 -1 2 -1 2 -1 2 -1 2 -1 2 -1 3 -1 3 -1 3 -1 3 -1 3 -1 3 -1 3 -1 3 -1 3 -1 3 -1 3 0 3 0 3 0 3 0 3 0 3 0 3 0 3 -45 0 0 -4 0 -4 0 -4 0 -4 0 -4 1 -4 1 -4 1 -4 1 -4 1 -4 1 -4 1 -4 1 -4 1 -4 1 -4 2 -4 2 -4 2 -4 2 -3 2 -3 2 -3 2 -3 2 -3 2 -3 2 -3 2 -3 2 -3 2 -3 3 -3 3 -3 3 -3 3 -3 31 0zm-31 0l16 -15 16 15 -31 0z"/>
	<path fill="#0E5F41" fill-rule="nonzero" d="M2566 953l695 0l0 643l0 84l-13 0l-1001 735l-447 0l0 -696l766 0l0 -39l0 -500l0 -93z"/>
</g>
</svg>
